<svg width="52" height="52" viewBox="0 0 52 52" fill="none" xmlns="http://www.w3.org/2000/svg">
<circle cx="26" cy="26" r="26" fill="#26A69A"/>
<path d="M19 38.0742C21.8 38.0742 24 35.8742 24 33.0742C24 30.2742 21.8 28.0742 19 28.0742C16.2 28.0742 14 30.2742 14 33.0742C14 35.8742 16.3 38.0742 19 38.0742Z" fill="white"/>
<path d="M31.1 19.8742C33.5 20.3742 35.6 18.2742 35.2 15.7742C34.9 14.4742 33.8 13.2742 32.5 13.0742C30.1 12.5742 28 14.6742 28.4 17.1742C28.6 18.5742 29.7 19.6742 31.1 19.8742Z" fill="white"/>
<path d="M19.4 19.4742C20.8 19.4742 22 18.2742 22 16.8742C22 15.4742 20.8 14.2742 19.4 14.2742C18 14.2742 16.8 15.4742 16.8 16.8742C16.8 18.2742 18 19.4742 19.4 19.4742Z" fill="white"/>
<path d="M18.4 25.4742C19.3 25.4742 20.1 24.6742 20.1 23.7742C20.1 22.8742 19.3 22.0742 18.4 22.0742C17.5 22.0742 16.7 22.8742 16.7 23.7742C16.7 24.6742 17.4 25.4742 18.4 25.4742Z" fill="white"/>
<path d="M34.7 33.7742C36.8 33.7742 38.4 32.0742 38.4 30.0742C38.4 28.0742 36.7 26.3742 34.7 26.3742C32.6 26.3742 31 28.0742 31 30.0742C31 32.0742 32.6 33.7742 34.7 33.7742Z" fill="white"/>
<path d="M19.5 31.4742L31.1 17.8742" stroke="white" stroke-width="1.5" stroke-miterlimit="10"/>
<path d="M33.5 28.0742L32.3 18.0742" stroke="white" stroke-width="1.5" stroke-miterlimit="10"/>
<path d="M28.9 15.6742L21.7 17.1742" stroke="white" stroke-width="1.5" stroke-miterlimit="10"/>
<path d="M23 33.3742L32.3 29.9742" stroke="white" stroke-width="1.5" stroke-miterlimit="10"/>
</svg>
