<svg xmlns="http://www.w3.org/2000/svg" viewBox="0 0 52 52" width="52" height="52">
	<path fill="#2727f9" d="M26 52C11.62 52 0 40.38 0 26C0 11.62 11.62 0 26 0C40.38 0 52 11.62 52 26C52 40.38 40.38 52 26 52Z" />
	<path fill="#ffffff" d="M28.1 37.5C27.6 37.5 27.1 37.2 26.8 36.8C26.5 36.2 26.6 35.4 27.1 34.9L27.1 34.9C28.2 33.8 28.2 32.1 27.1 31C26.6 30.5 25.8 30.2 25.1 30.2L16.1 30.2C15.3 30.2 14.6 29.5 14.6 28.7C14.6 27.9 15.3 27.2 16.1 27.2L16.1 27.2L35.5 27.2C36.3 27.2 37 27.9 37 28.7C37 29.1 36.8 29.5 36.6 29.8L29.2 37.2C28.9 37.4 28.5 37.5 28.1 37.5Z" />
	<path fill="#ffffff" d="M35.5 24.8L16.1 24.8C15.3 24.8 14.6 24.1 14.6 23.3C14.6 22.9 14.8 22.5 15 22.2L22.4 14.8C23 14.2 23.9 14.2 24.5 14.8C25.1 15.4 25.1 16.3 24.5 16.9L24.5 16.9L24.5 16.9C23.4 18 23.4 19.8 24.5 20.9C25 21.4 25.7 21.7 26.5 21.7L35.5 21.7C36.3 21.7 37 22.4 37 23.2C37 24 36.3 24.8 35.5 24.8L35.5 24.8Z" />
</svg>