<svg width="20" height="20" viewBox="0 0 20 20" fill="none" xmlns="http://www.w3.org/2000/svg">
<path d="M10 1C5.02944 1 1 5.02944 1 10V14V17.0004C1 18.105 1.89503 19 2.9996 19H6H10C14.9706 19 19 14.9706 19 10C19 5.02944 14.9706 1 10 1ZM7.99999 10C7.99999 10.2761 7.77613 10.5 7.49999 10.5C7.22385 10.5 6.99999 10.2761 6.99999 10C6.99999 9.72386 7.22385 9.5 7.49999 9.5C7.77613 9.5 7.99999 9.72386 7.99999 10ZM13 10C13 10.2761 12.7761 10.5 12.5 10.5C12.2238 10.5 12 10.2761 12 10C12 9.72386 12.2238 9.5 12.5 9.5C12.7761 9.5 13 9.72386 13 10Z" fill="#4360DF" stroke="white" stroke-width="2"/>
</svg>
