<svg width="20" height="20" viewBox="0 0 20 20" fill="none" xmlns="http://www.w3.org/2000/svg">
<path fill-rule="evenodd" clip-rule="evenodd" d="M20 10C20 15.5228 15.5228 20 10 20H2.99864C1.34178 20 3.91417e-06 18.6584 2.97048e-06 17.0015L0 10C0 4.47715 4.47715 0 10 0C15.5228 0 20 4.47715 20 10ZM8.71336 2.99988C8.06033 2.999 7.49538 2.99823 7.00917 3.16836C6.14743 3.4699 5.4699 4.14743 5.16836 5.00917C4.99823 5.49537 4.999 6.06033 4.99988 6.71335V6.71336L5.00001 7H7.00001V6.85715C7.00001 5.97549 7.01416 5.78968 7.05613 5.66973C7.15664 5.38248 7.38248 5.15664 7.66973 5.05613C7.78968 5.01416 7.97549 5.00001 8.85715 5.00001H10C10.9672 5.00001 11.3344 5.00311 11.6257 5.04926C13.3373 5.32034 14.6797 6.6627 14.9508 8.37427C14.9969 8.66561 15 9.03279 15 10C15 10.9672 14.9969 11.3344 14.9508 11.6257C14.6797 13.3373 13.3373 14.6797 11.6257 14.9508C11.3344 14.9969 10.9672 15 10 15H8.85715C7.97549 15 7.78968 14.9859 7.66973 14.9439C7.38248 14.8434 7.15664 14.6175 7.05613 14.3303C7.01416 14.2103 7.00001 14.0245 7.00001 13.1429C7.00001 13.064 6.93605 13 6.85714 13H5.28667C5.12833 13 4.99995 13.1283 4.99988 13.2867C4.999 13.9397 4.99823 14.5046 5.16836 14.9908C5.4699 15.8526 6.14743 16.5301 7.00917 16.8317C7.49538 17.0018 8.06033 17.001 8.71336 17.0001L10.0997 17H10.0997C10.9332 17.0001 11.471 17.0002 11.9386 16.9261C14.506 16.5195 16.5195 14.506 16.9261 11.9386C17.0002 11.471 17.0001 10.9332 17 10.0997V10.0997V9.90034V9.9003C17.0001 9.06681 17.0002 8.52901 16.9261 8.0614C16.5195 5.49405 14.506 3.48051 11.9386 3.07388C11.471 2.99982 10.9332 2.99989 10.0997 3L8.71336 2.99988ZM4 9C3.44772 9 3 9.44771 3 10C3 10.5523 3.44772 11 4 11H10C10.5523 11 11 10.5523 11 10C11 9.44771 10.5523 9 10 9H4Z" fill="white"/>
</svg>
