<svg width="20" height="16" viewBox="0 0 20 16" fill="none" xmlns="http://www.w3.org/2000/svg">
<path d="M10 15L9.50612 15.5644C9.78889 15.8119 10.2111 15.8119 10.4939 15.5644L10 15ZM5.50612 12.0644L9.50612 15.5644L10.4939 14.4356L6.49388 10.9356L5.50612 12.0644ZM10.4939 15.5644L14.4939 12.0644L13.5061 10.9356L9.50612 14.4356L10.4939 15.5644Z" fill="white"/>
<path d="M10 1L10.4939 0.435567C10.2111 0.188144 9.78889 0.188144 9.50612 0.435567L10 1ZM14.4939 3.93557L10.4939 0.435567L9.50612 1.56443L13.5061 5.06443L14.4939 3.93557ZM9.50612 0.435567L5.50612 3.93557L6.49388 5.06443L10.4939 1.56443L9.50612 0.435567Z" fill="white"/>
</svg>
