<svg width="20" height="20" viewBox="0 0 20 20" fill="none" xmlns="http://www.w3.org/2000/svg">
<path fill-rule="evenodd" clip-rule="evenodd" d="M10 20C15.5228 20 20 15.5228 20 10C20 4.47715 15.5228 0 10 0C4.47715 0 0 4.47715 0 10C0 15.5228 4.47715 20 10 20ZM10 6C9.44744 6 8.94882 6.22276 8.5858 6.58579C8.19528 6.97631 7.5621 6.97631 7.17158 6.58579C6.78106 6.19526 6.78106 5.5621 7.17158 5.17157C7.89434 4.44881 8.89572 4 10 4C12.2091 4 14 5.79086 14 8C14 10.2091 12.2091 12 10 12C9.44772 12 9.00001 11.5523 9.00001 11C9.00001 10.4477 9.44772 10 10 10C11.1046 10 12 9.10457 12 8C12 6.89543 11.1046 6 10 6ZM10.25 16.25C10.8023 16.25 11.25 15.8023 11.25 15.25V14.75C11.25 14.1977 10.8023 13.75 10.25 13.75H9.75001C9.19772 13.75 8.75001 14.1977 8.75001 14.75V15.25C8.75001 15.8023 9.19772 16.25 9.75001 16.25H10.25Z" fill="white"/>
</svg>
