<svg  viewBox="0 0 52 52" fill="none" xmlns="http://www.w3.org/2000/svg">
<circle cx="26" cy="26" r="26" fill="#51D0F0"/>
<path d="M24.5057 11.386C23.9627 11.9167 24.5454 12.6054 25.3017 12.539C25.8197 12.4935 26.3394 12.4934 26.8559 12.5844L39.0767 14.7393C39.6392 14.8385 40.0147 15.3748 39.9155 15.9373L37.4015 30.1949C37.3024 30.7574 36.766 31.1329 36.2036 31.0338L34.2672 30.6923C33.5604 30.5677 32.9446 31.1834 33.0692 31.8903L33.648 35.1727C33.6894 35.4072 33.7142 35.6407 33.7234 35.8722C33.7457 36.4364 34.1093 36.9649 34.6653 37.0629L35.1261 37.1442C36.8135 37.4417 38.4225 36.315 38.7201 34.6277L41.9523 16.2964C42.2499 14.6091 41.1232 13.0001 39.4358 12.7025L27.215 10.5477C26.1913 10.3671 25.1963 10.7109 24.5057 11.386Z" fill="white"/>
<path d="M32.3049 27.5552C32.3803 27.9834 32.7156 28.3186 33.1437 28.3941L34.5259 28.6378C35.0883 28.737 35.6427 28.3576 35.6126 27.7873C35.5179 25.9876 34.2351 24.777 32.4227 24.1624C32.0712 24.0433 31.7405 24.3544 31.8049 24.7199L32.3049 27.5552Z" fill="white"/>
<path d="M32.2208 22.883C31.7752 22.9073 31.4224 22.5507 31.3449 22.1112L30.4157 16.8414L30.4076 16.7965C30.3032 16.2328 30.5592 15.6237 31.1315 15.5903C31.5755 15.5644 32.0686 15.6037 32.6071 15.6987C34.8569 16.0954 36.0295 17.1326 35.6328 19.3824C35.2894 21.3304 34.0166 22.7853 32.2208 22.883Z" fill="white"/>
<path fill-rule="evenodd" clip-rule="evenodd" d="M15.474 25.3467C15.0393 24.4297 14.5596 23.224 14.8351 22.8505C15.1453 22.4299 16.6214 22.7834 17.5638 23.0632C17.8772 23.1563 18.213 23.1107 18.5061 22.9659C18.948 22.7477 19.4298 22.5872 19.9426 22.4967C20.4268 22.4114 20.9064 22.3941 21.3708 22.4379C21.6874 22.4678 22.0086 22.3952 22.2648 22.2067C23.057 21.6239 24.2806 20.8266 24.7071 21.1098C25.0625 21.3458 25.0587 22.4609 24.9821 23.4243C24.9356 24.0092 25.1128 24.5849 25.376 25.1093C25.5739 25.5035 25.7181 25.9312 25.7982 26.3854C25.8829 26.866 26.3606 27.29 26.7139 27.603C26.9276 27.7924 26.9857 28.1251 26.7364 28.2643C26.5013 28.3954 26.2168 28.4601 25.9147 28.4809C25.7079 28.4951 25.5201 28.6113 25.4137 28.7891C24.7046 29.9739 23.2241 30.7103 21.4461 31.0238C19.6595 31.3389 18.009 31.1498 16.9379 30.2681C16.7714 30.131 16.5447 30.0858 16.3399 30.1534C16.0094 30.2625 15.6769 30.3162 15.3751 30.2676C15.0932 30.2221 15.034 29.8895 15.1701 29.6385C15.4079 29.1997 15.5777 28.7193 15.6828 28.2173C15.7228 28.0261 15.7205 27.8296 15.7083 27.6347C15.6945 27.4143 15.6966 27.1955 15.7137 26.9796C15.758 26.4225 15.7134 25.8517 15.474 25.3467ZM21.009 29.0008C21.5714 28.9016 21.9872 28.5932 21.9376 28.312C21.888 28.0308 21.3919 27.8832 20.8294 27.9824C20.267 28.0815 19.8512 28.3899 19.9008 28.6711C19.9504 28.9524 20.4465 29.0999 21.009 29.0008ZM19.4988 27.3597C19.2208 28.1236 18.408 28.5291 17.6835 28.2654C16.9589 28.0017 16.597 27.1686 16.875 26.4047C17.153 25.6409 17.9658 25.2354 18.6903 25.4991C19.4149 25.7628 19.7768 26.5958 19.4988 27.3597ZM23.8869 27.176C24.478 26.68 24.5327 25.7722 24.0092 25.1482C23.4857 24.5243 22.5821 24.4206 21.991 24.9166C21.3999 25.4126 21.3451 26.3204 21.8687 26.9444C22.3922 27.5683 23.2958 27.672 23.8869 27.176Z" fill="white"/>
<path fill-rule="evenodd" clip-rule="evenodd" d="M12.5641 16.839C10.8768 17.1365 9.75012 18.7455 10.0477 20.4329L13.28 38.7641C13.5775 40.4515 15.1865 41.5782 16.8739 41.2806L29.0947 39.1258C30.7821 38.8282 31.9087 37.2192 31.6112 35.5318L28.3789 17.2006C28.0814 15.5132 26.4723 14.3866 24.785 14.6841L12.5641 16.839ZM12.9233 18.8758C12.3608 18.9749 11.9853 19.5113 12.0845 20.0738L14.5985 34.3314C14.6976 34.8938 15.234 35.2694 15.7964 35.1702L28.0173 33.0153C28.5797 32.9162 28.9553 32.3798 28.8561 31.8174L26.3421 17.5597C26.2429 16.9973 25.7066 16.6217 25.1441 16.7209L12.9233 18.8758Z" fill="white"/>
</svg>
