<svg viewBox="0 0 52 52" fill="none" xmlns="http://www.w3.org/2000/svg">
<circle cx="26" cy="26" r="26" fill="#887AF9"/>
<path d="M16.5 23.9999H21.5C21.8028 23.9999 22.0758 23.8179 22.1923 23.5384L24.2852 18.5153C24.4127 18.2095 24.3243 17.8562 24.0679 17.6464L19.4749 13.8885C19.1986 13.6625 18.8013 13.6625 18.525 13.8885L13.9321 17.6464C13.6756 17.8562 13.5873 18.2095 13.7147 18.5153L15.8077 23.5384C15.9241 23.8179 16.1972 23.9999 16.5 23.9999Z" fill="white"/>
<path d="M29 13.9999C28.4477 13.9999 28 14.4477 28 14.9999V22.9999C28 23.5522 28.4477 23.9999 29 23.9999H37C37.5523 23.9999 38 23.5522 38 22.9999V14.9999C38 14.4477 37.5523 13.9999 37 13.9999H29Z" fill="white"/>
<path d="M19 37.9999C21.7614 37.9999 24 35.7614 24 32.9999C24 30.2385 21.7614 27.9999 19 27.9999C16.2386 27.9999 14 30.2385 14 32.9999C14 35.7614 16.2386 37.9999 19 37.9999Z" fill="white"/>
<path d="M28.0107 37.9999H37.9893C38.4447 37.9999 38.7341 37.5125 38.516 37.1126L33.5267 27.9656C33.2993 27.5487 32.7007 27.5487 32.4732 27.9656L27.484 37.1126C27.2659 37.5125 27.5553 37.9999 28.0107 37.9999Z" fill="white"/>
</svg>
