<svg viewBox="0 0 52 52" fill="none" xmlns="http://www.w3.org/2000/svg">
<circle cx="26" cy="26" r="26" fill="#D37EF4"/>
<path fill-rule="evenodd" clip-rule="evenodd" d="M18 18C13.5817 18 10 21.5817 10 26C10 30.4183 13.5817 34 18 34H18.3425C20.0313 34 21.6379 33.271 22.75 32L23.5122 31.1289C24.1399 30.4115 25.0468 30 26 30C26.9532 30 27.8601 30.4115 28.4878 31.1289L29.25 32C30.3621 33.271 31.9687 34 33.6575 34H34C38.4183 34 42 30.4183 42 26C42 21.5817 38.4183 18 34 18H18ZM18 21C18.8284 21 19.5 21.6716 19.5 22.5V24C19.5 24.2761 19.7239 24.5 20 24.5H21.5C22.3284 24.5 23 25.1716 23 26C23 26.8284 22.3284 27.5 21.5 27.5H20C19.7239 27.5 19.5 27.7239 19.5 28V29.5C19.5 30.3284 18.8284 31 18 31C17.1716 31 16.5 30.3284 16.5 29.5V28C16.5 27.7239 16.2761 27.5 16 27.5H14.5C13.6716 27.5 13 26.8284 13 26C13 25.1716 13.6716 24.5 14.5 24.5H16C16.2761 24.5 16.5 24.2761 16.5 24V22.5C16.5 21.6716 17.1716 21 18 21ZM34.5 28.5C34.5 29.6046 33.6046 30.5 32.5 30.5C31.3954 30.5 30.5 29.6046 30.5 28.5C30.5 27.3954 31.3954 26.5 32.5 26.5C33.6046 26.5 34.5 27.3954 34.5 28.5ZM37.5 25.5C38.6046 25.5 39.5 24.6046 39.5 23.5C39.5 22.3954 38.6046 21.5 37.5 21.5C36.3954 21.5 35.5 22.3954 35.5 23.5C35.5 24.6046 36.3954 25.5 37.5 25.5Z" fill="white"/>
</svg>
