<svg viewBox="0 0 52 52" fill="none" xmlns="http://www.w3.org/2000/svg">
<circle cx="26" cy="26" r="26" fill="#FE8F59"/>
<path d="M15.1342 16.138C15.5228 14.869 16.7152 14 18.0677 14H33.9282C35.2808 14 36.4731 14.869 36.8618 16.138C36.9436 16.4051 37.0322 16.682 37.1227 16.9646C37.5911 18.4276 38.1082 20.043 37.9802 21.2496C37.8303 22.6619 36.4456 24 35.1861 24C33.5886 24 32.5044 22.662 32.3889 21.2498C32.3776 21.1121 32.2643 21 32.1234 21C31.9824 21 31.8694 21.1122 31.8548 21.2496C31.7049 22.6619 30.3202 24 29.0607 24C27.4632 24 26.379 22.662 26.2635 21.2498C26.2522 21.1121 26.1389 21 25.998 21C25.857 21 25.744 21.1122 25.7294 21.2496C25.5795 22.6619 24.1948 24 22.9353 24C21.3378 24 20.2536 22.662 20.1381 21.2498C20.1268 21.1121 20.0135 21 19.8726 21C19.7316 21 19.6186 21.1122 19.604 21.2496C19.4541 22.6619 18.0694 24 16.8099 24C15.2124 24 14.1282 22.662 14.0127 21.2498C13.9116 20.0145 14.4343 18.3604 14.9052 16.87C14.984 16.6205 15.0614 16.3756 15.1342 16.138Z" fill="white"/>
<path d="M16.9857 26C17.3506 26 17.6626 26.2627 17.7247 26.6223L18.7132 32.3407C18.8789 33.2996 19.7108 34 20.6839 34H31.316C32.2892 34 33.1211 33.2996 33.2868 32.3407L34.2753 26.6223C34.3374 26.2627 34.6494 26 35.0143 26H36.4098C36.7187 26 36.9538 26.2774 36.903 26.5822L35.4178 35.4932C35.1767 36.9398 33.9251 38 32.4586 38H19.5414C18.0749 38 16.8233 36.9398 16.5822 35.4932L15.097 26.5822C15.0462 26.2774 15.2813 26 15.5902 26H16.9857Z" fill="white"/>
<path d="M20.6553 30.6213C20.5764 30.3057 20.8151 30 21.1404 30H30.8596C31.1849 30 31.4236 30.3057 31.3447 30.6213L31.1894 31.2425C31.0781 31.6877 30.6781 32 30.2192 32H21.7808C21.3219 32 20.9219 31.6877 20.8106 31.2425L20.6553 30.6213Z" fill="white"/>
</svg>
