<svg viewBox="0 0 24 24" xmlns="http://www.w3.org/2000/svg"><path fill-rule="evenodd" clip-rule="evenodd" d="M10.5276 3H13.4724C15.9501 3 16.9528 3.27848 17.9305 3.8014C18.9083 4.32432 19.6757 5.09169 20.1986 6.06946C20.7215 7.04724 21 8.04991 21 10.5276V13.4724C21 15.9501 20.7215 16.9528 20.1986 17.9305C19.6757 18.9083 18.9083 19.6757 17.9305 20.1986C16.9528 20.7215 15.9501 21 13.4724 21H10.5276C8.04991 21 7.04724 20.7215 6.06946 20.1986C5.09169 19.6757 4.32432 18.9083 3.8014 17.9305C3.27848 16.9528 3 15.9501 3 13.4724V10.5276C3 8.04991 3.27848 7.04724 3.8014 6.06946C4.32432 5.09169 5.09169 4.32432 6.06946 3.8014C7.04724 3.27848 8.04991 3 10.5276 3ZM13.1905 7.90387C12.9896 7.87742 12.7324 7.875 12 7.875H10.5C10.1352 7.875 9.91786 7.87561 9.75585 7.88666C9.6556 7.8935 9.613 7.90265 9.60197 7.90545C9.51372 7.94337 9.44337 8.01371 9.40546 8.10196C9.40266 8.11299 9.39351 8.1556 9.38667 8.25584C9.37561 8.41785 9.375 8.63515 9.375 9C9.375 9.23297 9.375 9.34945 9.33694 9.44134C9.2862 9.56385 9.18886 9.66119 9.06634 9.71194C8.97446 9.75 8.85797 9.75 8.625 9.75H7.875C7.64203 9.75 7.52555 9.75 7.43366 9.71194C7.31115 9.66119 7.21381 9.56385 7.16306 9.44134C7.125 9.34945 7.125 9.23297 7.125 9L7.125 8.96736V8.96735C7.12498 8.64594 7.12496 8.35067 7.14188 8.10268C7.16007 7.83622 7.20148 7.54321 7.32482 7.24545C7.59124 6.60225 8.10226 6.09123 8.74546 5.82481C9.04321 5.70148 9.33622 5.66006 9.60269 5.64188C9.85068 5.62496 10.146 5.62498 10.4674 5.62499L10.5 5.625H12L12.0868 5.62499C12.6998 5.62488 13.1173 5.62482 13.4842 5.67312C16.0083 6.00543 17.9946 7.99166 18.3269 10.5158C18.3752 10.8827 18.3751 11.3002 18.375 11.9131V11.9131V11.9132L18.375 12L18.375 12.0868V12.0868V12.0869C18.3751 12.6998 18.3752 13.1173 18.3269 13.4842C17.9946 16.0083 16.0083 17.9946 13.4842 18.3269C13.1173 18.3752 12.6998 18.3751 12.0868 18.375H12.0868L12 18.375L10.4674 18.375H10.4673C10.1459 18.375 9.85067 18.375 9.60269 18.3581C9.33622 18.3399 9.04321 18.2985 8.74546 18.1752C8.10226 17.9088 7.59124 17.3977 7.32482 16.7545C7.20148 16.4568 7.16007 16.1638 7.14188 15.8973C7.12496 15.6493 7.12498 15.354 7.125 15.0326C7.125 14.769 7.125 14.6371 7.17347 14.5352C7.22284 14.4314 7.30645 14.3478 7.41024 14.2985C7.51215 14.25 7.64398 14.25 7.90764 14.25H8.625C8.85797 14.25 8.97446 14.25 9.06634 14.2881C9.18886 14.3388 9.2862 14.4361 9.33694 14.5587C9.375 14.6505 9.375 14.767 9.375 15C9.375 15.3648 9.37561 15.5821 9.38667 15.7442C9.39351 15.8444 9.40266 15.887 9.40546 15.898C9.44337 15.9863 9.51372 16.0566 9.60197 16.0945C9.613 16.0973 9.6556 16.1065 9.75585 16.1133C9.91786 16.1244 10.1352 16.125 10.5 16.125H12C12.7324 16.125 12.9896 16.1226 13.1905 16.0961C14.705 15.8967 15.8967 14.705 16.0961 13.1905C16.1226 12.9896 16.125 12.7324 16.125 12C16.125 11.2676 16.1226 11.0104 16.0961 10.8095C15.8967 9.29499 14.705 8.10325 13.1905 7.90387ZM5.62982 11.777C5.625 11.8259 5.625 11.8839 5.625 12C5.625 12.1161 5.625 12.1741 5.62982 12.223C5.67658 12.6978 6.05221 13.0734 6.52698 13.1202C6.57587 13.125 6.63392 13.125 6.75 13.125H10.5C10.6161 13.125 10.6741 13.125 10.723 13.1202C11.1978 13.0734 11.5734 12.6978 11.6202 12.223C11.625 12.1741 11.625 12.1161 11.625 12C11.625 11.8839 11.625 11.8259 11.6202 11.777C11.5734 11.3022 11.1978 10.9266 10.723 10.8798C10.6741 10.875 10.6161 10.875 10.5 10.875H6.75C6.63392 10.875 6.57587 10.875 6.52698 10.8798C6.05221 10.9266 5.67658 11.3022 5.62982 11.777Z"></path></svg>
