<svg viewBox="0 0 52 52" fill="none" xmlns="http://www.w3.org/2000/svg">
<circle cx="26" cy="26" r="26" fill="#FFCA0F"/>
<path fill-rule="evenodd" clip-rule="evenodd" d="M24.0368 14H27.9632C31.2668 14 32.6037 14.3713 33.9074 15.0685C35.2111 15.7658 36.2342 16.7889 36.9315 18.0926C37.6287 19.3963 38 20.7332 38 24.0368V27.9632C38 31.2668 37.6287 32.6037 36.9315 33.9074C36.2342 35.2111 35.2111 36.2342 33.9074 36.9315C32.6037 37.6287 31.2668 38 27.9632 38H24.0368C20.7332 38 19.3963 37.6287 18.0926 36.9315C16.7889 36.2342 15.7658 35.2111 15.0685 33.9074C14.3713 32.6037 14 31.2668 14 27.9632V24.0368C14 20.7332 14.3713 19.3963 15.0685 18.0926C15.7658 16.7889 16.7889 15.7658 18.0926 15.0685C19.3963 14.3713 20.7332 14 24.0368 14ZM27.5874 20.5385C27.3195 20.5032 26.9765 20.5 26 20.5H24C23.5135 20.5 23.2238 20.5008 23.0078 20.5155C22.8741 20.5247 22.8173 20.5369 22.8026 20.5406C22.685 20.5912 22.5912 20.6849 22.5406 20.8026C22.5369 20.8173 22.5247 20.8741 22.5156 21.0078C22.5008 21.2238 22.5 21.5135 22.5 22C22.5 22.4714 22.5 22.7071 22.3536 22.8535C22.2071 23 21.9714 23 21.5 23H20.5C20.0286 23 19.7929 23 19.6465 22.8535C19.5 22.7071 19.5 22.4714 19.5 22L19.5 21.9565C19.5 21.5279 19.5 21.1342 19.5225 20.8036C19.5468 20.4483 19.602 20.0576 19.7664 19.6606C20.1217 18.803 20.803 18.1216 21.6606 17.7664C22.0576 17.602 22.4483 17.5467 22.8036 17.5225C23.1342 17.4999 23.5279 17.5 23.9565 17.5H23.9565L24 17.5H26L26.1157 17.5C26.9331 17.4998 27.4898 17.4998 27.9789 17.5642C31.3445 18.0072 33.9928 20.6555 34.4358 24.021C34.5002 24.5102 34.5002 25.0669 34.5 25.8843L34.5 26L34.5 26.1157C34.5002 26.9331 34.5002 27.4897 34.4358 27.9789C33.9928 31.3444 31.3445 33.9928 27.9789 34.4358C27.4898 34.5002 26.9331 34.5001 26.1159 34.5H26.1158H26.1157L26 34.5L23.9565 34.5C23.5279 34.5 23.1342 34.5 22.8036 34.4775C22.4483 34.4532 22.0576 34.398 21.6606 34.2336C20.803 33.8783 20.1217 33.197 19.7664 32.3394C19.602 31.9424 19.5468 31.5517 19.5225 31.1964C19.5 30.8658 19.5 30.4721 19.5 30.0435V30C19.5 29.5286 19.5 29.2929 19.6464 29.1464C19.7929 29 20.0286 29 20.5 29H21.5C21.9714 29 22.2071 29 22.3536 29.1464C22.5 29.2929 22.5 29.5286 22.5 30C22.5 30.4865 22.5008 30.7762 22.5156 30.9922C22.5247 31.1259 22.5369 31.1827 22.5406 31.1974C22.5912 31.315 22.685 31.4088 22.8026 31.4594C22.8173 31.4631 22.8741 31.4753 23.0078 31.4844C23.2238 31.4992 23.5135 31.5 24 31.5H26C26.9765 31.5 27.3195 31.4968 27.5874 31.4615C29.6067 31.1957 31.1957 29.6067 31.4615 27.5874C31.4968 27.3195 31.5 26.9765 31.5 26C31.5 25.0235 31.4968 24.6805 31.4615 24.4126C31.1957 22.3933 29.6067 20.8043 27.5874 20.5385ZM17.5761 25.1173C17.5 25.3011 17.5 25.5341 17.5 26C17.5 26.4659 17.5 26.6989 17.5761 26.8827C17.6776 27.1277 17.8723 27.3224 18.1173 27.4239C18.3011 27.5 18.5341 27.5 19 27.5H24C24.4659 27.5 24.6989 27.5 24.8827 27.4239C25.1277 27.3224 25.3224 27.1277 25.4239 26.8827C25.5 26.6989 25.5 26.4659 25.5 26C25.5 25.5341 25.5 25.3011 25.4239 25.1173C25.3224 24.8723 25.1277 24.6776 24.8827 24.5761C24.6989 24.5 24.4659 24.5 24 24.5H19C18.5341 24.5 18.3011 24.5 18.1173 24.5761C17.8723 24.6776 17.6776 24.8723 17.5761 25.1173Z" fill="white"/>
</svg>
