<svg viewBox="0 0 52 52" fill="none" xmlns="http://www.w3.org/2000/svg">
<circle cx="26" cy="26" r="26" fill="#7CDA00"/>
<path fill-rule="evenodd" clip-rule="evenodd" d="M26 38C32.6274 38 38 32.6274 38 26C38 19.3726 32.6274 14 26 14C19.3726 14 14 19.3726 14 26V35.0021C14 36.659 15.3429 38 16.9997 38H26ZM28 26C28 27.1046 27.1046 28 26 28C24.8954 28 24 27.1046 24 26C24 24.8954 24.8954 24 26 24C27.1046 24 28 24.8954 28 26ZM32 28C33.1046 28 34 27.1046 34 26C34 24.8954 33.1046 24 32 24C30.8954 24 30 24.8954 30 26C30 27.1046 30.8954 28 32 28ZM22 26C22 27.1046 21.1046 28 20 28C18.8954 28 18 27.1046 18 26C18 24.8954 18.8954 24 20 24C21.1046 24 22 24.8954 22 26Z" fill="white"/>
</svg>
