<svg viewBox="0 0 52 52" fill="none" xmlns="http://www.w3.org/2000/svg">
<circle cx="26" cy="26" r="26" fill="#FA6565"/>
<path d="M24.3535 25.6464C24.1583 25.8417 23.8417 25.8417 23.6464 25.6464L14.5858 16.5857C14 15.9999 13.5001 14.4999 14 13.9999C14.4999 13.4999 16 13.9999 16.5858 14.5857L25.6464 23.6464C25.8417 23.8417 25.8417 24.1582 25.6464 24.3535L24.3535 25.6464Z" fill="white"/>
<path d="M25.2974 27.7026L27.7026 25.2973C28.4226 24.5832 29.5851 24.585 30.3028 25.3027C30.7383 25.7383 30.9274 26.3628 30.8066 26.9668L30.7918 27.041C30.653 27.735 31.2649 28.347 31.9589 28.2081C32.6093 28.0781 33.2817 28.2816 33.7507 28.7507L36.5 31.4999C37.8807 32.8806 37.8807 35.1192 36.5 36.4999C35.1193 37.8806 32.8807 37.8806 31.5 36.4999L28.7507 33.7507C28.2817 33.2816 28.0781 32.6093 28.2082 31.9589C28.347 31.2648 27.7351 30.6529 27.041 30.7917L26.9669 30.8066C26.3628 30.9274 25.7383 30.7383 25.3028 30.3027C24.5851 29.585 24.5833 28.4225 25.2974 27.7026Z" fill="white"/>
<path d="M33.2587 25.8677C32.9965 25.9237 32.753 25.7391 32.6747 25.4827C32.4935 24.8897 32.1688 24.3404 31.717 23.8885C30.7318 22.9033 29.3448 22.565 28.0836 22.8734C27.8999 22.9183 27.7027 22.8742 27.569 22.7405L26.5555 21.727C26.2873 21.4588 26.0923 21.1209 26.0457 20.7444C26.0156 20.5005 26 20.252 26 19.9999C26 16.6862 28.6863 13.9999 32 13.9999C32.4423 13.9999 32.8734 14.0478 33.2884 14.1386C33.646 14.2169 33.7461 14.6539 33.4872 14.9128L30.8 17.5999C29.8059 18.5941 29.8059 20.2058 30.8 21.1999C31.7941 22.1941 33.4059 22.1941 34.4 21.1999L37.0872 18.5128C37.3461 18.2539 37.7831 18.3539 37.8613 18.7116C37.9522 19.1266 38 19.5577 38 19.9999C38 22.8819 35.9681 25.2893 33.2587 25.8677Z" fill="white"/>
<path fill-rule="evenodd" clip-rule="evenodd" d="M23.6012 31.3958C23.7619 31.5968 23.7808 31.8851 23.6185 32.0848L20.2295 36.256C19.0372 37.7235 16.8371 37.837 15.5 36.5C14.163 35.1629 14.2765 32.9628 15.744 31.7704L21.5723 27.035C21.7711 26.8734 22.0599 26.8883 22.2411 27.0695L22.6751 27.5035C22.849 27.6773 22.9052 27.9335 22.8526 28.1737C22.6109 29.2783 22.8615 30.4699 23.6012 31.3958ZM19.75 34.2499C19.75 35.3545 18.8546 36.2499 17.75 36.2499C16.6454 36.2499 15.75 35.3545 15.75 34.2499C15.75 33.1454 16.6454 32.2499 17.75 32.2499C18.8546 32.2499 19.75 33.1454 19.75 34.2499Z" fill="white"/>
</svg>
