<?xml version="1.0" encoding="utf-8"?>
<!-- Generator: Adobe Illustrator 16.0.0, SVG Export Plug-In . SVG Version: 6.00 Build 0)  -->
<!DOCTYPE svg PUBLIC "-//W3C//DTD SVG 1.1//EN" "http://www.w3.org/Graphics/SVG/1.1/DTD/svg11.dtd">
<svg version="1.1" id="Layer_1" xmlns="http://www.w3.org/2000/svg" xmlns:xlink="http://www.w3.org/1999/xlink" x="0px" y="0px"
	 width="900px" height="900px" viewBox="84.5 810.5 900 900" enable-background="new 84.5 810.5 900 900" xml:space="preserve">
<g>
	<circle fill="#475493" cx="535.993" cy="1264.794" r="345.105"/>
	<g>
		<g>
			
				<line fill="none" stroke="#FFFFFF" stroke-width="6" stroke-linecap="round" stroke-linejoin="round" x1="535.994" y1="1000.116" x2="373.207" y2="1270.211"/>
			
				<line fill="none" stroke="#FFFFFF" stroke-width="6" stroke-linecap="round" stroke-linejoin="round" x1="698.714" y1="1270.211" x2="535.994" y2="1196.177"/>
			
				<line fill="none" stroke="#FFFFFF" stroke-width="6" stroke-linecap="round" stroke-linejoin="round" x1="373.207" y1="1270.211" x2="535.994" y2="1196.177"/>
			
				<line fill="none" stroke="#FFFFFF" stroke-width="6" stroke-linecap="round" stroke-linejoin="round" x1="373.207" y1="1270.211" x2="535.994" y2="1366.386"/>
			
				<line fill="none" stroke="#FFFFFF" stroke-width="6" stroke-linecap="round" stroke-linejoin="round" x1="535.994" y1="1000.116" x2="698.714" y2="1270.211"/>
			
				<line fill="none" stroke="#FFFFFF" stroke-width="6" stroke-linecap="round" stroke-linejoin="round" x1="535.994" y1="1196.177" x2="535.994" y2="1366.386"/>
			
				<line fill="none" stroke="#FFFFFF" stroke-width="6" stroke-linecap="round" stroke-linejoin="round" x1="535.994" y1="1000.116" x2="535.994" y2="1196.177"/>
			
				<line fill="none" stroke="#FFFFFF" stroke-width="6" stroke-linecap="round" stroke-linejoin="round" x1="698.714" y1="1270.211" x2="535.994" y2="1366.386"/>
			<polyline fill="none" stroke="#FFFFFF" stroke-width="6" stroke-linecap="round" stroke-linejoin="round" points="
				535.994,1530.388 373.207,1301.054 535.994,1397.229 			"/>
			<polyline fill="none" stroke="#FFFFFF" stroke-width="6" stroke-linecap="round" stroke-linejoin="round" points="
				535.994,1530.388 698.843,1301.054 535.994,1397.229 			"/>
			
				<line fill="none" stroke="#FFFFFF" stroke-width="6" stroke-linecap="round" stroke-linejoin="round" x1="535.994" y1="1530.388" x2="535.994" y2="1397.229"/>
		</g>
		<g>
			<g>
				<g>
					<path fill="#FFFFFF" d="M375.898,1277.325c-4.567,0-8.283-3.716-8.283-8.282s3.716-8.282,8.283-8.282s8.282,3.716,8.282,8.282
						S380.465,1277.325,375.898,1277.325z"/>
					<path fill="#FFFFFF" d="M375.898,1262.261c3.745,0,6.782,3.036,6.782,6.782s-3.037,6.782-6.782,6.782
						c-3.747,0-6.783-3.036-6.783-6.782S372.151,1262.261,375.898,1262.261 M375.898,1259.261c-5.394,0-9.783,4.389-9.783,9.782
						s4.389,9.782,9.783,9.782s9.782-4.389,9.782-9.782S381.292,1259.261,375.898,1259.261L375.898,1259.261z"/>
				</g>
				<g>
					<path fill="#FFFFFF" d="M696.087,1277.325c-4.566,0-8.281-3.716-8.281-8.282s3.715-8.282,8.281-8.282
						c4.567,0,8.283,3.716,8.283,8.282S700.655,1277.325,696.087,1277.325z"/>
					<path fill="#FFFFFF" d="M696.087,1262.261c3.748,0,6.783,3.036,6.783,6.782s-3.035,6.782-6.783,6.782
						c-3.746,0-6.781-3.036-6.781-6.782S692.341,1262.261,696.087,1262.261 M696.087,1259.261c-5.394,0-9.781,4.389-9.781,9.782
						s4.388,9.782,9.781,9.782c5.395,0,9.783-4.389,9.783-9.782S701.482,1259.261,696.087,1259.261L696.087,1259.261z"/>
				</g>
			</g>
			<g>
				<g>
					<path fill="#FFFFFF" d="M375.898,1310.963c-4.567,0-8.283-3.715-8.283-8.281s3.716-8.282,8.283-8.282s8.282,3.716,8.282,8.282
						S380.465,1310.963,375.898,1310.963z"/>
					<path fill="#FFFFFF" d="M375.898,1295.899c3.745,0,6.782,3.036,6.782,6.782c0,3.745-3.037,6.781-6.782,6.781
						c-3.747,0-6.783-3.036-6.783-6.781C369.115,1298.936,372.151,1295.899,375.898,1295.899 M375.898,1292.899
						c-5.394,0-9.783,4.389-9.783,9.782s4.389,9.781,9.783,9.781s9.782-4.388,9.782-9.781S381.292,1292.899,375.898,1292.899
						L375.898,1292.899z"/>
				</g>
				<g>
					<path fill="#FFFFFF" d="M696.087,1310.963c-4.566,0-8.281-3.715-8.281-8.281s3.715-8.282,8.281-8.282
						c4.567,0,8.283,3.716,8.283,8.282S700.655,1310.963,696.087,1310.963z"/>
					<path fill="#FFFFFF" d="M696.087,1295.899c3.748,0,6.783,3.036,6.783,6.782c0,3.745-3.035,6.781-6.783,6.781
						c-3.746,0-6.781-3.036-6.781-6.781C689.306,1298.936,692.341,1295.899,696.087,1295.899 M696.087,1292.899
						c-5.394,0-9.781,4.389-9.781,9.782s4.388,9.781,9.781,9.781c5.395,0,9.783-4.388,9.783-9.781
						S701.482,1292.899,696.087,1292.899L696.087,1292.899z"/>
				</g>
			</g>
			<g>
				<path fill="#FFFFFF" d="M535.994,1372.177c-4.567,0-8.283-3.716-8.283-8.282s3.716-8.282,8.283-8.282
					c4.566,0,8.281,3.716,8.281,8.282S540.56,1372.177,535.994,1372.177z"/>
				<path fill="#FFFFFF" d="M535.994,1357.112c3.744,0,6.781,3.036,6.781,6.782s-3.037,6.782-6.781,6.782
					c-3.746,0-6.783-3.036-6.783-6.782S532.248,1357.112,535.994,1357.112 M535.994,1354.112c-5.394,0-9.783,4.389-9.783,9.782
					s4.389,9.782,9.783,9.782c5.394,0,9.781-4.389,9.781-9.782S541.387,1354.112,535.994,1354.112L535.994,1354.112z"/>
			</g>
			<g>
				<path fill="#FFFFFF" d="M535.994,1206.588c-5.74,0-10.411-4.671-10.411-10.411s4.67-10.41,10.411-10.41s10.41,4.67,10.41,10.41
					S541.734,1206.588,535.994,1206.588z"/>
				<path fill="#FFFFFF" d="M535.994,1187.267c4.92,0,8.91,3.988,8.91,8.91s-3.99,8.911-8.91,8.911
					c-4.921,0-8.911-3.989-8.911-8.911S531.072,1187.267,535.994,1187.267 M535.994,1184.267c-6.567,0-11.911,5.343-11.911,11.91
					s5.343,11.911,11.911,11.911s11.91-5.344,11.91-11.911S542.561,1184.267,535.994,1184.267L535.994,1184.267z"/>
			</g>
			<g>
				<path fill="#FFFFFF" d="M535.994,1015.103c-5.74,0-10.411-4.67-10.411-10.41s4.67-10.41,10.411-10.41s10.41,4.67,10.41,10.41
					S541.734,1015.103,535.994,1015.103z"/>
				<path fill="#FFFFFF" d="M535.994,995.782c4.92,0,8.91,3.988,8.91,8.91c0,4.921-3.99,8.91-8.91,8.91
					c-4.921,0-8.911-3.989-8.911-8.91C527.083,999.771,531.072,995.782,535.994,995.782 M535.994,992.782
					c-6.567,0-11.911,5.343-11.911,11.91s5.343,11.91,11.911,11.91s11.91-5.343,11.91-11.91S542.561,992.782,535.994,992.782
					L535.994,992.782z"/>
			</g>
			<g>
				<path fill="#FFFFFF" d="M535.994,1407.639c-5.74,0-10.411-4.67-10.411-10.41s4.67-10.41,10.411-10.41s10.41,4.67,10.41,10.41
					S541.734,1407.639,535.994,1407.639z"/>
				<path fill="#FFFFFF" d="M535.994,1388.318c4.92,0,8.91,3.989,8.91,8.91s-3.99,8.91-8.91,8.91c-4.921,0-8.911-3.989-8.911-8.91
					S531.072,1388.318,535.994,1388.318 M535.994,1385.318c-6.567,0-11.911,5.343-11.911,11.91s5.343,11.91,11.911,11.91
					s11.91-5.343,11.91-11.91S542.561,1385.318,535.994,1385.318L535.994,1385.318z"/>
			</g>
			<g>
				<path fill="#FFFFFF" d="M535.994,1535.307c-5.74,0-10.411-4.67-10.411-10.41s4.67-10.41,10.411-10.41s10.41,4.67,10.41,10.41
					S541.734,1535.307,535.994,1535.307z"/>
				<path fill="#FFFFFF" d="M535.994,1515.986c4.92,0,8.91,3.989,8.91,8.91c0,4.922-3.99,8.91-8.91,8.91
					c-4.921,0-8.911-3.988-8.911-8.91C527.083,1519.976,531.072,1515.986,535.994,1515.986 M535.994,1512.986
					c-6.567,0-11.911,5.343-11.911,11.91s5.343,11.91,11.911,11.91s11.91-5.343,11.91-11.91S542.561,1512.986,535.994,1512.986
					L535.994,1512.986z"/>
			</g>
		</g>
	</g>
</g>
</svg>
