<?xml version="1.0" encoding="iso-8859-1"?>
<!-- Generator: Adobe Illustrator 19.0.0, SVG Export Plug-In . SVG Version: 6.00 Build 0)  -->
<svg version="1.1" id="Layer_1" xmlns="http://www.w3.org/2000/svg" xmlns:xlink="http://www.w3.org/1999/xlink" x="0px" y="0px"
	 viewBox="0 0 512 512" style="enable-background:new 0 0 512 512;" xml:space="preserve">
<g>
	<path style="fill:#878e94;" d="M182.946,290.654c2.5,2.5,5.777,3.746,9.054,3.746s6.554-1.246,9.054-3.746l102.4-102.4
		c5.001-5.001,5.001-13.099,0-18.099s-13.099-5.001-18.099,0L204.8,250.701V12.8C204.8,5.726,199.074,0,192,0s-12.8,5.726-12.8,12.8
		v237.901l-80.546-80.546c-5.001-5.001-13.099-5.001-18.099,0c-5.001,5.001-5.001,13.099,0,18.099L182.946,290.654z"/>
	<path style="fill:#878e94;" d="M208.546,341.854c5.001,5.001,13.099,5.001,18.099,0l80.555-80.555V499.2
		c0,7.074,5.726,12.8,12.8,12.8s12.8-5.726,12.8-12.8V261.299l80.546,80.546c5.001,5.001,13.099,5.001,18.099,0
		s5.001-13.099,0-18.099l-102.4-102.4c-2.492-2.5-5.769-3.746-9.045-3.746s-6.554,1.246-9.054,3.746l-102.4,102.4
		C203.554,328.747,203.554,336.853,208.546,341.854z"/>
</g>
<g>
</g>
<g>
</g>
<g>
</g>
<g>
</g>
<g>
</g>
<g>
</g>
<g>
</g>
<g>
</g>
<g>
</g>
<g>
</g>
<g>
</g>
<g>
</g>
<g>
</g>
<g>
</g>
<g>
</g>
</svg>
