<svg width="20" height="20" viewBox="0 0 20 20" fill="none" xmlns="http://www.w3.org/2000/svg"><path fill-rule="evenodd" clip-rule="evenodd" d="M10 20C15.5228 20 20 15.5228 20 10C20 4.47715 15.5228 0 10 0C4.47715 0 0 4.47715 0 10C0 15.5228 4.47715 20 10 20ZM10 4C10.5523 4 11 4.44772 11 5V8.5C11 8.77614 11.2239 9 11.5 9H15C15.5523 9 16 9.44772 16 10C16 10.5523 15.5523 11 15 11H11.5C11.2239 11 11 11.2239 11 11.5V15C11 15.5523 10.5523 16 10 16C9.44771 16 9 15.5523 9 15V11.5C9 11.2239 8.77614 11 8.5 11H5C4.44771 11 4 10.5523 4 10C4 9.44772 4.44772 9 5 9H8.5C8.77614 9 9 8.77614 9 8.5V5C9 4.44771 9.44772 4 10 4Z" fill="black"></path></svg>
