<svg width="18" height="18" viewBox="0 0 18 18" fill="none" xmlns="http://www.w3.org/2000/svg"><path fill-rule="evenodd" clip-rule="evenodd" d="M9 18C13.9706 18 18 13.9706 18 9C18 4.02944 13.9706 0 9 0C4.02944 0 0 4.02944 0 9C0 13.9706 4.02944 18 9 18ZM9.75 3.375C9.75 2.75368 9.24632 2.25 8.625 2.25C8.00368 2.25 7.5 2.75368 7.5 3.375V8.00368C7.5 8.69987 7.77656 9.36755 8.26884 9.85983L11.2045 12.7955C11.6438 13.2348 12.3562 13.2348 12.7955 12.7955C13.2348 12.3562 13.2348 11.6438 12.7955 11.2045L9.85983 8.26884C9.78951 8.19852 9.75 8.10314 9.75 8.00368V3.375Z" fill="black"></path></svg>
