<svg width="18" height="17" viewBox="0 0 18 17" fill="none" xmlns="http://www.w3.org/2000/svg"><path d="M8.07764 0.702201C8.42034 -0.116037 9.57966 -0.116039 9.92236 0.7022L11.555 4.60017C11.6992 4.9444 12.023 5.1797 12.395 5.21045L16.6066 5.55862C17.4907 5.6317 17.849 6.73427 17.1767 7.31306L13.974 10.0703C13.6912 10.3138 13.5675 10.6945 13.6532 11.0578L14.6235 15.1709C14.8272 16.0343 13.8893 16.7157 13.1311 16.2552L9.51914 14.0613C9.20016 13.8676 8.79984 13.8676 8.48087 14.0613L4.86889 16.2552C4.11068 16.7157 3.17278 16.0343 3.37647 15.1709L4.34682 11.0578C4.43251 10.6945 4.30881 10.3138 4.02598 10.0703L0.823298 7.31306C0.15101 6.73427 0.509255 5.6317 1.39335 5.55862L5.60504 5.21045C5.97698 5.1797 6.30084 4.9444 6.44502 4.60017L8.07764 0.702201Z" fill="black"></path></svg>
